<svg xmlns="http://www.w3.org/2000/svg" width="22.398" height="20.531" viewBox="0 0 22.398 20.531">
  <g id="_001-cash" data-name="001-cash" transform="translate(0 -21.388)">
    <g id="Group_44" data-name="Group 44" transform="translate(0 21.388)">
      <g id="Group_43" data-name="Group 43" transform="translate(0 0)">
        <path id="Path_33" data-name="Path 33" d="M301.3,281.781a1.867,1.867,0,1,0-1.867-1.866A1.872,1.872,0,0,0,301.3,281.781Z" transform="translate(-286.371 -266.849)" fill="#c9e2ff"/>
        <path id="Path_34" data-name="Path 34" d="M3.733,26.987a1.867,1.867,0,0,1,0-3.733H18.665v1.867h1.867V21.388H3.733A3.744,3.744,0,0,0,0,25.121V37.253a4.621,4.621,0,0,0,4.666,4.666H22.4V26.987Zm16.8,13.065H4.666a2.75,2.75,0,0,1-2.8-2.8V28.294a3.365,3.365,0,0,0,1.866.56h16.8v11.2Z" transform="translate(0 -21.388)" fill="#c9e2ff"/>
      </g>
    </g>
  </g>
</svg>
