<svg id="_03-speed" data-name="03-speed" xmlns="http://www.w3.org/2000/svg" width="11.391" height="11.391" viewBox="0 0 11.391 11.391">
  <path id="Path_9" data-name="Path 9" d="M5.7,0a5.7,5.7,0,1,0,5.7,5.7A5.7,5.7,0,0,0,5.7,0Zm0,10.441A4.746,4.746,0,1,1,10.441,5.7,4.746,4.746,0,0,1,5.7,10.441Z" fill="#c9e2ff"/>
  <path id="Path_10" data-name="Path 10" d="M35.8,32A3.8,3.8,0,0,0,32,35.8h.949A2.848,2.848,0,1,1,35.8,38.645v.949A3.8,3.8,0,0,0,35.8,32Z" transform="translate(-30.102 -30.102)" fill="#c9e2ff"/>
  <path id="Path_11" data-name="Path 11" d="M74.565,65.246a5.591,5.591,0,0,0,.474-2.355.475.475,0,0,0-.625-.469,5.592,5.592,0,0,0-2.128,1.115,1.424,1.424,0,0,0,1.136,2.278,1.447,1.447,0,0,0,.2-.015A1.414,1.414,0,0,0,74.565,65.246Zm-1.424-.475a.475.475,0,0,1-.095-.664,3.543,3.543,0,0,1,.991-.53,3.555,3.555,0,0,1-.231,1.1.475.475,0,0,1-.664.095Z" transform="translate(-67.73 -58.697)" fill="#c9e2ff"/>
</svg>
