<svg xmlns="http://www.w3.org/2000/svg" width="8.262" height="7.917" viewBox="0 0 8.262 7.917">
  <g id="paper-plane" transform="translate(0)">
    <path id="Path_14" data-name="Path 14" d="M8.75,17.612v1.6a.258.258,0,0,0,.466.153l.934-1.271Z" transform="translate(-5.738 -11.549)" fill="#021c39"/>
    <path id="Path_15" data-name="Path 15" d="M8.153.048A.258.258,0,0,0,7.884.029L.139,4.074a.258.258,0,0,0,.036.473l2.153.736L6.913,1.362,3.365,5.638,6.974,6.871a.264.264,0,0,0,.083.014.258.258,0,0,0,.255-.22L8.259.3A.259.259,0,0,0,8.153.048Z" transform="translate(0)" fill="#021c39"/>
  </g>
</svg>
