<svg xmlns="http://www.w3.org/2000/svg" width="18.235" height="17.868" viewBox="0 0 18.235 17.868">
  <g id="_004-download" data-name="004-download" transform="translate(-16 -1)">
    <g id="Group_46" data-name="Group 46" transform="translate(20.255 1)">
      <g id="Group_45" data-name="Group 45">
        <path id="Path_35" data-name="Path 35" d="M137.669,8.866a.606.606,0,0,0-.553-.356h-2.431V.608A.608.608,0,0,0,134.076,0h-2.431a.608.608,0,0,0-.608.608v7.9h-2.431a.608.608,0,0,0-.457,1.008L132.4,14.38a.606.606,0,0,0,.914,0l4.255-4.863A.606.606,0,0,0,137.669,8.866Z" transform="translate(-127.998)" fill="#c9e2ff"/>
      </g>
    </g>
    <g id="Group_48" data-name="Group 48" transform="translate(16 12.789)">
      <g id="Group_47" data-name="Group 47">
        <path id="Path_36" data-name="Path 36" d="M31.8,352v3.647H18.431V352H16v4.863a1.215,1.215,0,0,0,1.216,1.216h15.8a1.215,1.215,0,0,0,1.216-1.216V352Z" transform="translate(-16 -352)" fill="#c9e2ff"/>
      </g>
    </g>
  </g>
</svg>
