<svg xmlns="http://www.w3.org/2000/svg" width="22.604" height="29.134" viewBox="0 0 22.604 29.134">
  <g id="json-file" transform="translate(-6.5)">
    <path id="Path_22" data-name="Path 22" d="M31.515,45.553a1.055,1.055,0,0,0-.4-.337,1.107,1.107,0,0,0-.471-.1,1.241,1.241,0,0,0-.484.1,1.037,1.037,0,0,0-.412.326,1.684,1.684,0,0,0-.285.594,3.479,3.479,0,0,0-.11.893,3.549,3.549,0,0,0,.106.879,1.722,1.722,0,0,0,.275.594,1.1,1.1,0,0,0,.4.337,1.074,1.074,0,0,0,.471.106,1.209,1.209,0,0,0,.484-.1,1.079,1.079,0,0,0,.412-.326,1.646,1.646,0,0,0,.285-.594,3.546,3.546,0,0,0,.11-.9,3.5,3.5,0,0,0-.106-.876A1.762,1.762,0,0,0,31.515,45.553Z" transform="translate(-11.375 -22.453)" fill="#c9e2ff"/>
    <path id="Path_23" data-name="Path 23" d="M29.1,19.59V7.021a1.16,1.16,0,0,0-.276-.9L22.982.276A.95.95,0,0,0,22.315,0H7.737A1.3,1.3,0,0,0,6.5,1.47V19.59ZM18.053,16.576a.5.5,0,1,1-1,0V15.069a.5.5,0,1,1,1,0ZM22.071,1.7a.258.258,0,0,1,.441-.182l5.071,5.071a.258.258,0,0,1-.182.441H22.071Zm-.5,10.352V10.046a.5.5,0,0,0-.5-.5.5.5,0,0,1,0-1,1.509,1.509,0,0,1,1.507,1.507v2.009a1.006,1.006,0,0,0,1,1,.5.5,0,1,1,0,1,1.006,1.006,0,0,0-1,1v2.009a1.509,1.509,0,0,1-1.507,1.507.5.5,0,0,1,0-1,.5.5,0,0,0,.5-.5V15.069a2,2,0,0,1,.694-1.507A2,2,0,0,1,21.569,12.055Zm-4.018-1a.753.753,0,1,1-.753.753A.754.754,0,0,1,17.551,11.051ZM11.523,13.06a1.006,1.006,0,0,0,1-1V10.046a1.509,1.509,0,0,1,1.507-1.507.5.5,0,1,1,0,1,.5.5,0,0,0-.5.5v2.009a2,2,0,0,1-.694,1.507,2,2,0,0,1,.694,1.507v2.009a.5.5,0,0,0,.5.5.5.5,0,1,1,0,1,1.509,1.509,0,0,1-1.507-1.507V15.069a1.006,1.006,0,0,0-1-1,.5.5,0,1,1,0-1Z" fill="#c9e2ff"/>
    <path id="Path_24" data-name="Path 24" d="M6.5,41v7.535a1.218,1.218,0,0,0,1.237,1H27.867a1.218,1.218,0,0,0,1.237-1V41Zm5.787,5.307a1.26,1.26,0,0,1-.131.6,1.071,1.071,0,0,1-.35.391,1.4,1.4,0,0,1-.5.206,2.936,2.936,0,0,1-.587.058,2.387,2.387,0,0,1-.354-.031,3.021,3.021,0,0,1-.419-.1q-.216-.066-.415-.148A1.541,1.541,0,0,1,9.19,47.1l.35-.556a1.026,1.026,0,0,0,.2.1q.127.051.278.1t.316.079a1.5,1.5,0,0,0,.309.034,1.055,1.055,0,0,0,.58-.141.556.556,0,0,0,.23-.477V42.365h.838Zm3.987.368a1.381,1.381,0,0,1-.319.453,1.531,1.531,0,0,1-.508.312,1.894,1.894,0,0,1-.687.117c-.11,0-.223-.006-.34-.017a2.759,2.759,0,0,1-.354-.058,1.851,1.851,0,0,1-.34-.114,1.1,1.1,0,0,1-.278-.175l.144-.591a1.466,1.466,0,0,0,.244.106c.1.034.2.066.305.1s.21.054.316.072a1.7,1.7,0,0,0,.3.028.943.943,0,0,0,.642-.2.731.731,0,0,0,.223-.58.554.554,0,0,0-.158-.4,1.71,1.71,0,0,0-.395-.3q-.237-.134-.512-.268a3.122,3.122,0,0,1-.515-.316,1.648,1.648,0,0,1-.4-.429,1.124,1.124,0,0,1-.158-.618,1.38,1.38,0,0,1,.124-.6,1.336,1.336,0,0,1,.333-.443,1.474,1.474,0,0,1,.488-.278,1.779,1.779,0,0,1,.587-.1,3.6,3.6,0,0,1,.638.058,1.407,1.407,0,0,1,.522.189c-.028.059-.059.125-.1.2l-.1.2c-.032.062-.059.114-.082.155a.635.635,0,0,1-.041.069.83.83,0,0,1-.093-.055.7.7,0,0,0-.148-.069,1.054,1.054,0,0,0-.254-.048,2.4,2.4,0,0,0-.405.007.709.709,0,0,0-.261.079.9.9,0,0,0-.22.161.736.736,0,0,0-.151.216.554.554,0,0,0-.055.23.621.621,0,0,0,.158.443,1.548,1.548,0,0,0,.391.3q.233.127.508.247a2.756,2.756,0,0,1,.512.292,1.475,1.475,0,0,1,.395.429,1.248,1.248,0,0,1,.158.663A1.278,1.278,0,0,1,16.274,46.675ZM21.2,46.1a2.3,2.3,0,0,1-.447.81,1.874,1.874,0,0,1-.666.488,2.195,2.195,0,0,1-1.669,0,1.868,1.868,0,0,1-.666-.488,2.3,2.3,0,0,1-.447-.81,4,4,0,0,1,0-2.249,2.3,2.3,0,0,1,.447-.807,1.915,1.915,0,0,1,.666-.491,2.152,2.152,0,0,1,1.669,0,1.909,1.909,0,0,1,.666.491,2.306,2.306,0,0,1,.447.807,4,4,0,0,1,0,2.249ZM26.18,47.53h-.838l-1.985-3.489V47.53H22.52V42.469h.838l1.985,3.489V42.469h.838Z" transform="translate(0 -20.406)" fill="#c9e2ff"/>
  </g>
</svg>
