<svg id="painter-palette" xmlns="http://www.w3.org/2000/svg" width="11.693" height="11.693" viewBox="0 0 11.693 11.693">
  <g id="palette" transform="translate(0 0)">
    <path id="Path_39" data-name="Path 39" d="M5.847,0a5.847,5.847,0,1,0,0,11.693,1,1,0,0,0,.974-.974.834.834,0,0,0-.26-.65,1.154,1.154,0,0,1-.26-.65,1,1,0,0,1,.974-.974H8.445A3.217,3.217,0,0,0,11.693,5.2C11.693,2.339,9.095,0,5.847,0ZM2.274,5.847A1,1,0,0,1,1.3,4.872,1,1,0,0,1,2.274,3.9a1,1,0,0,1,.974.974A1,1,0,0,1,2.274,5.847Zm1.949-2.6a1,1,0,0,1-.974-.974A1,1,0,0,1,4.223,1.3a1,1,0,0,1,.974.974A1,1,0,0,1,4.223,3.248Zm3.248,0A1,1,0,0,1,6.5,2.274a.974.974,0,1,1,1.949,0A1,1,0,0,1,7.471,3.248Zm1.949,2.6a.974.974,0,0,1,0-1.949,1,1,0,0,1,.974.974A1,1,0,0,1,9.42,5.847Z" transform="translate(0 0)" fill="#fff"/>
  </g>
</svg>
