<svg xmlns="http://www.w3.org/2000/svg" width="7.926" height="11.449" viewBox="0 0 7.926 11.449">
  <g id="paper-push-pin" transform="translate(-73.088)">
    <path id="Path_38" data-name="Path 38" d="M80.474,5.962a1.551,1.551,0,0,0-1.221-.678V1.761a.846.846,0,0,0,.619-.261.846.846,0,0,0,.262-.619.846.846,0,0,0-.262-.619A.846.846,0,0,0,79.253,0h-4.4a.846.846,0,0,0-.619.261.846.846,0,0,0-.261.619.846.846,0,0,0,.261.619.847.847,0,0,0,.619.261V5.284a1.551,1.551,0,0,0-1.221.678,2.383,2.383,0,0,0-.54,1.524.446.446,0,0,0,.44.44h2.78l.523,3.337a.2.2,0,0,0,.22.186h.007a.193.193,0,0,0,.141-.058.254.254,0,0,0,.072-.141l.351-3.323h2.952a.447.447,0,0,0,.441-.44A2.382,2.382,0,0,0,80.474,5.962Zm-4.084-.9a.22.22,0,1,1-.44,0V1.982a.22.22,0,1,1,.44,0Z" fill="#fff"/>
  </g>
</svg>
