<svg xmlns="http://www.w3.org/2000/svg" width="8.262" height="8.262" viewBox="0 0 8.262 8.262">
  <g id="fountain-pen" transform="translate(0 0)">
    <path id="Path_16" data-name="Path 16" d="M249.409,0l-.279.279a2.065,2.065,0,0,0-.387.537l-.3.59L251.1,4.06l.59-.3a2.066,2.066,0,0,0,.537-.387l.279-.279-3.1-3.1Z" transform="translate(-244.246)" fill="#021c39"/>
    <path id="Path_17" data-name="Path 17" d="M3.441,124.473a2.8,2.8,0,0,1-1.891.477L0,130.63l5.68-1.549a2.8,2.8,0,0,1,.477-1.891l-2.716-2.716Zm-.6,4.091a.775.775,0,1,1,.775-.775.775.775,0,0,1-.775.775Z" transform="translate(0 -122.368)" fill="#021c39"/>
  </g>
</svg>
