<svg xmlns="http://www.w3.org/2000/svg" width="8.57" height="8.917" viewBox="0 0 8.57 8.917">
  <g id="rubber" transform="translate(-7.013 0)">
    <g id="Group_20" data-name="Group 20" transform="translate(7.013 0)">
      <path id="Path_18" data-name="Path 18" d="M83.8,2.55,81.348.1a.338.338,0,0,0-.478,0L77.063,3.907l2.929,2.929L83.8,3.028A.338.338,0,0,0,83.8,2.55Z" transform="translate(-75.328 0)" fill="#021c39"/>
      <path id="Path_19" data-name="Path 19" d="M8.143,182.11l-1.031,1.031a.338.338,0,0,0,0,.477l2.451,2.451a.338.338,0,0,0,.478,0l1.031-1.031Z" transform="translate(-7.013 -177.599)" fill="#021c39"/>
      <path id="Path_20" data-name="Path 20" d="M150.133,332.644h4.747v-.695h-3.938Z" transform="translate(-146.588 -323.726)" fill="#021c39"/>
    </g>
  </g>
</svg>
