<svg xmlns="http://www.w3.org/2000/svg" width="20.3" height="15.95" viewBox="0 0 20.3 15.95">
  <g id="_002-list-with-dots" data-name="002-list-with-dots" transform="translate(0 -54.817)">
    <g id="Group_38" data-name="Group 38" transform="translate(0 54.817)">
      <path id="Path_25" data-name="Path 25" d="M2.175,201a2.1,2.1,0,0,0-1.541.634,2.188,2.188,0,0,0,0,3.081,2.1,2.1,0,0,0,1.541.634,2.1,2.1,0,0,0,1.541-.634,2.188,2.188,0,0,0,0-3.081A2.1,2.1,0,0,0,2.175,201Z" transform="translate(0 -195.199)" fill="#c9e2ff"/>
      <path id="Path_26" data-name="Path 26" d="M2.178,54.817a2.1,2.1,0,0,0-1.541.634,2.188,2.188,0,0,0,0,3.081,2.1,2.1,0,0,0,1.541.634,2.1,2.1,0,0,0,1.541-.634,2.188,2.188,0,0,0,0-3.081A2.1,2.1,0,0,0,2.178,54.817Z" transform="translate(-0.003 -54.817)" fill="#c9e2ff"/>
      <path id="Path_27" data-name="Path 27" d="M2.178,347.18a2.1,2.1,0,0,0-1.541.634,2.188,2.188,0,0,0,0,3.081,2.1,2.1,0,0,0,1.541.634,2.1,2.1,0,0,0,1.541-.634,2.188,2.188,0,0,0,0-3.081A2.1,2.1,0,0,0,2.178,347.18Z" transform="translate(-0.003 -335.58)" fill="#c9e2ff"/>
      <path id="Path_28" data-name="Path 28" d="M160.57,73.2a.349.349,0,0,0-.255-.107H146.54a.367.367,0,0,0-.362.362v2.175a.367.367,0,0,0,.362.362h13.775a.367.367,0,0,0,.363-.362V73.454A.349.349,0,0,0,160.57,73.2Z" transform="translate(-140.378 -72.367)" fill="#c9e2ff"/>
      <path id="Path_29" data-name="Path 29" d="M160.315,219.271H146.54a.367.367,0,0,0-.362.362v2.175a.368.368,0,0,0,.362.362h13.775a.367.367,0,0,0,.363-.362v-2.175a.367.367,0,0,0-.363-.362Z" transform="translate(-140.378 -212.746)" fill="#c9e2ff"/>
      <path id="Path_30" data-name="Path 30" d="M160.315,365.447H146.54a.368.368,0,0,0-.362.362v2.175a.367.367,0,0,0,.362.362h13.775a.367.367,0,0,0,.363-.362v-2.175a.367.367,0,0,0-.363-.362Z" transform="translate(-140.378 -353.122)" fill="#c9e2ff"/>
    </g>
  </g>
</svg>
