<?xml version="1.0" encoding="utf-8"?>
<!-- Generator: Adobe Illustrator 22.0.1, SVG Export Plug-In . SVG Version: 6.00 Build 0)  -->
<svg version="1.1" id="Layer_1" xmlns="http://www.w3.org/2000/svg" xmlns:xlink="http://www.w3.org/1999/xlink" x="0px" y="0px"
	 viewBox="0 0 91.6 39.9" style="enable-background:new 0 0 91.6 39.9;" xml:space="preserve">
<style type="text/css">
	.st0{fill:#49C1BF;}
	.st1{fill:#077A8F;}
	.st2{fill:#298E97;}
	.st3{fill:#FFFFFF;}
</style>
<g>
	<g id="zilliqa" transform="translate(0.007)">
		<g id="Group_1" transform="translate(-0.007)">
			<path id="path0_fill" class="st0" d="M28.2,16.5L22.4,19L7.2,26.8l15.2,7.3V22l5.7-2.6v17.9l-5.7,2.6L0,29.1v-5.7l15.5-7.6L0,8.4
				V2.6L5.8,0l22.4,10.8V16.5z"/>
		</g>
		<g id="Group_2" transform="translate(-0.007)">
			<path id="path1_fill" class="st1" d="M0,2.6l22.4,10.8l5.7-2.6L5.8,0L0,2.6z"/>
		</g>
		<g id="Group_3" transform="translate(21.709 10.388)">
			<path id="path2_fill" class="st2" d="M0.7,2.9l5.7-2.6v5.7L0.7,8.6V2.9z"/>
		</g>
		<g id="Group_4" transform="translate(-0.007 2.484)">
			<path id="path3_fill" class="st0" d="M0,0.1v5.8l15.5,7.5L0,21v5.7l22.4,10.7v-5.7L7.2,24.3l15.2-7.8v-5.7L0,0.1z"/>
		</g>
		<g id="Group_5" transform="translate(21.709 18.767)">
			<path id="path4_fill" class="st2" d="M0.7,21.1l5.7-2.6V0.6L0.7,3.2V21.1z"/>
		</g>
	</g>
	<g>
		<path class="st3" d="M50.4,10c0.2,0.2,0.3,0.4,0.3,0.6v8.3c0,0.2-0.1,0.5-0.2,0.6c-0.2,0.2-0.4,0.3-0.6,0.3
			c-0.3,0-0.5-0.1-0.7-0.2c-0.2-0.2-0.3-0.4-0.3-0.6v-5.8l-2.4,3.6c-0.1,0.1-0.2,0.2-0.3,0.3c-0.1,0.1-0.3,0.1-0.4,0.1
			c-0.1,0-0.2,0-0.4-0.1c-0.1-0.1-0.2-0.2-0.3-0.3L42.7,13v5.9c0,0.3-0.1,0.5-0.2,0.6c-0.2,0.2-0.4,0.2-0.6,0.2
			c-0.2,0-0.4-0.1-0.6-0.3S41,19.2,41,18.9v-8.3c0-0.2,0.1-0.4,0.3-0.6c0.2-0.2,0.4-0.3,0.6-0.3c0.1,0,0.3,0,0.4,0.1
			c0.1,0.1,0.3,0.2,0.3,0.3l3.1,4.8l3.2-4.8c0.1-0.1,0.2-0.2,0.3-0.3c0.1-0.1,0.3-0.1,0.4-0.1C50,9.7,50.2,9.8,50.4,10z"/>
		<path class="st3" d="M58.9,12.4c0.2,0.2,0.2,0.4,0.2,0.6v3.6c0,1-0.3,1.8-0.9,2.4c-0.6,0.6-1.4,0.9-2.4,0.9S54,19.6,53.5,19
			c-0.6-0.6-0.8-1.4-0.8-2.4V13c0-0.2,0.1-0.5,0.2-0.6c0.2-0.2,0.4-0.3,0.6-0.3c0.2,0,0.5,0.1,0.6,0.3c0.2,0.2,0.2,0.4,0.2,0.6v3.6
			c0,0.6,0.1,1,0.4,1.3c0.3,0.3,0.6,0.4,1.2,0.4c0.5,0,0.9-0.1,1.2-0.4c0.3-0.3,0.4-0.7,0.4-1.3V13c0-0.2,0.1-0.5,0.2-0.6
			c0.2-0.2,0.4-0.3,0.6-0.3C58.6,12.1,58.8,12.2,58.9,12.4z"/>
		<path class="st3" d="M62.7,19.5c-0.2,0.2-0.4,0.3-0.6,0.3c-0.2,0-0.4-0.1-0.6-0.3c-0.2-0.2-0.2-0.4-0.2-0.6V10
			c0-0.2,0.1-0.5,0.3-0.6c0.2-0.2,0.4-0.3,0.6-0.3c0.2,0,0.4,0.1,0.6,0.3c0.2,0.2,0.2,0.4,0.2,0.6v8.9
			C62.9,19.2,62.8,19.4,62.7,19.5z"/>
		<path class="st3" d="M68.9,18.4c0.1,0.1,0.2,0.3,0.2,0.5c0,0.3-0.1,0.5-0.4,0.7c-0.3,0.2-0.6,0.3-1,0.3c-0.6,0-1.1-0.1-1.5-0.4
			c-0.4-0.3-0.6-0.8-0.6-1.6v-4H65c-0.2,0-0.4-0.1-0.6-0.2c-0.2-0.2-0.2-0.3-0.2-0.6c0-0.2,0.1-0.4,0.2-0.6c0.2-0.1,0.3-0.2,0.6-0.2
			h0.7v-0.9c0-0.2,0.1-0.5,0.3-0.6c0.2-0.2,0.4-0.3,0.6-0.3c0.2,0,0.4,0.1,0.6,0.3c0.2,0.2,0.2,0.4,0.2,0.6v0.9h1
			c0.2,0,0.4,0.1,0.6,0.2c0.2,0.2,0.2,0.3,0.2,0.6c0,0.2-0.1,0.4-0.2,0.6c-0.2,0.1-0.3,0.2-0.6,0.2h-1v3.9c0,0.2,0.1,0.3,0.2,0.4
			c0.1,0.1,0.2,0.1,0.4,0.1c0.1,0,0.2,0,0.3-0.1c0.1,0,0.2-0.1,0.3-0.1C68.7,18.2,68.8,18.2,68.9,18.4z"/>
		<path class="st3" d="M70.8,11c-0.1-0.1-0.2-0.3-0.2-0.6v-0.3c0-0.3,0.1-0.5,0.2-0.6c0.1-0.1,0.4-0.2,0.7-0.2
			c0.3,0,0.6,0.1,0.7,0.2c0.1,0.1,0.2,0.3,0.2,0.6v0.3c0,0.3-0.1,0.5-0.2,0.6c-0.1,0.1-0.4,0.2-0.7,0.2C71.1,11.2,70.9,11.1,70.8,11
			z M72.1,19.5c-0.2,0.2-0.4,0.3-0.6,0.3c-0.2,0-0.5-0.1-0.6-0.3c-0.2-0.2-0.2-0.4-0.2-0.6V13c0-0.2,0.1-0.5,0.2-0.6
			c0.2-0.2,0.4-0.3,0.6-0.3c0.2,0,0.5,0.1,0.6,0.3c0.2,0.2,0.2,0.4,0.2,0.6v5.9C72.3,19.2,72.3,19.4,72.1,19.5z"/>
		<path class="st3" d="M73.5,18.2c0-0.2,0.1-0.5,0.4-0.6c0.1-0.1,0.3-0.1,0.4-0.1c0.2,0,0.4,0.1,0.6,0.3c0.3,0.3,0.6,0.5,0.9,0.7
			c0.3,0.1,0.7,0.2,1.1,0.2c0.7,0,1.1-0.3,1.1-0.8c0-0.3-0.1-0.5-0.4-0.6c-0.3-0.1-0.6-0.3-1.2-0.4c-0.6-0.2-1-0.3-1.4-0.5
			s-0.6-0.4-0.9-0.7c-0.3-0.3-0.4-0.7-0.4-1.3c0-0.5,0.1-0.9,0.4-1.2c0.3-0.3,0.6-0.6,1-0.8c0.4-0.2,0.9-0.3,1.4-0.3
			c0.5,0,1,0.1,1.5,0.3c0.5,0.2,0.9,0.4,1.1,0.8c0.1,0.2,0.2,0.3,0.2,0.5c0,0.2-0.1,0.4-0.3,0.5c-0.1,0.1-0.3,0.2-0.5,0.2
			c-0.2,0-0.4-0.1-0.5-0.2c-0.2-0.2-0.4-0.4-0.7-0.5c-0.3-0.1-0.6-0.2-0.9-0.2c-0.7,0-1.1,0.3-1.1,0.8c0,0.2,0.1,0.4,0.2,0.5
			c0.1,0.1,0.3,0.2,0.5,0.3c0.2,0.1,0.5,0.2,0.9,0.3c0.5,0.1,0.9,0.3,1.3,0.4c0.3,0.2,0.6,0.4,0.9,0.7c0.2,0.3,0.4,0.7,0.4,1.2
			c0,0.5-0.1,0.9-0.4,1.2c-0.3,0.3-0.6,0.6-1.1,0.8c-0.4,0.2-0.9,0.3-1.3,0.3c-0.6,0-1.2-0.1-1.8-0.3c-0.5-0.2-1-0.5-1.3-1
			C73.6,18.5,73.5,18.3,73.5,18.2z"/>
		<path class="st3" d="M81.1,11c-0.1-0.1-0.2-0.3-0.2-0.6v-0.3c0-0.3,0.1-0.5,0.2-0.6c0.1-0.1,0.4-0.2,0.7-0.2
			c0.3,0,0.6,0.1,0.7,0.2c0.1,0.1,0.2,0.3,0.2,0.6v0.3c0,0.3-0.1,0.5-0.2,0.6c-0.1,0.1-0.4,0.2-0.7,0.2C81.4,11.2,81.2,11.1,81.1,11
			z M82.4,19.5c-0.2,0.2-0.4,0.3-0.6,0.3c-0.2,0-0.5-0.1-0.6-0.3c-0.2-0.2-0.2-0.4-0.2-0.6V13c0-0.2,0.1-0.5,0.2-0.6
			c0.2-0.2,0.4-0.3,0.6-0.3c0.2,0,0.5,0.1,0.6,0.3c0.2,0.2,0.2,0.4,0.2,0.6v5.9C82.6,19.2,82.6,19.4,82.4,19.5z"/>
		<path class="st3" d="M91.4,12.2c0.2,0.2,0.2,0.4,0.2,0.6v6.4c0,1.2-0.4,2-1.1,2.6c-0.7,0.6-1.6,0.8-2.7,0.8c-0.3,0-0.7,0-1.2-0.1
			s-0.9-0.2-1.1-0.3c-0.5-0.2-0.7-0.5-0.7-0.8c0-0.1,0-0.1,0-0.2c0.1-0.2,0.2-0.4,0.3-0.5s0.3-0.2,0.5-0.2c0.1,0,0.2,0,0.3,0
			c0,0,0.3,0.1,0.7,0.3c0.4,0.2,0.8,0.3,1.2,0.3c0.7,0,1.2-0.1,1.6-0.4c0.3-0.3,0.5-0.7,0.5-1.2v-0.7c-0.2,0.3-0.5,0.6-1,0.8
			c-0.4,0.2-0.9,0.4-1.4,0.4c-0.7,0-1.3-0.2-1.8-0.5c-0.6-0.3-1-0.8-1.3-1.4c-0.3-0.6-0.5-1.3-0.5-2c0-0.8,0.2-1.4,0.5-2.1
			c0.3-0.6,0.7-1.1,1.3-1.4c0.5-0.3,1.1-0.5,1.8-0.5c0.5,0,0.9,0.1,1.4,0.3c0.4,0.2,0.8,0.4,1,0.7v-0.2c0-0.2,0.1-0.5,0.2-0.6
			c0.2-0.2,0.4-0.3,0.6-0.3C91,12,91.2,12.1,91.4,12.2z M89.3,17.7c0.4-0.5,0.6-1,0.6-1.7s-0.2-1.3-0.6-1.7
			c-0.4-0.5-0.9-0.7-1.6-0.7c-0.6,0-1.2,0.2-1.6,0.7c-0.4,0.5-0.6,1-0.6,1.7s0.2,1.3,0.6,1.7s0.9,0.7,1.6,0.7
			C88.4,18.3,88.9,18.1,89.3,17.7z"/>
		<path class="st3" d="M53,23.1c0.2,0.2,0.3,0.4,0.3,0.7c0,0.1,0,0.2,0,0.3l-2.8,8.3c-0.1,0.2-0.2,0.3-0.3,0.4
			c-0.1,0.1-0.3,0.1-0.5,0.2c-0.2,0-0.3,0-0.5-0.1c-0.2-0.1-0.3-0.2-0.4-0.4l-2-4.6l-2,4.6c-0.1,0.2-0.2,0.3-0.4,0.4
			c-0.2,0.1-0.3,0.1-0.5,0.1c-0.2,0-0.3-0.1-0.5-0.2c-0.1-0.1-0.2-0.2-0.3-0.4l-2.8-8.3c0-0.1,0-0.2,0-0.3c0-0.3,0.1-0.5,0.3-0.7
			c0.2-0.2,0.4-0.3,0.7-0.3c0.2,0,0.4,0.1,0.5,0.2s0.3,0.2,0.3,0.4l2.1,6.5l1.9-4.5c0.1-0.2,0.2-0.3,0.3-0.4
			c0.1-0.1,0.3-0.1,0.5-0.1c0.2,0,0.3,0,0.5,0.1c0.1,0.1,0.2,0.2,0.3,0.4l1.8,4.4l2.1-6.4c0.1-0.2,0.2-0.3,0.3-0.4
			c0.2-0.1,0.3-0.2,0.5-0.2C52.5,22.8,52.8,22.9,53,23.1z"/>
		<path class="st3" d="M61.1,25.3c0.2,0.2,0.2,0.4,0.2,0.6V32c0,0.2-0.1,0.5-0.2,0.6c-0.2,0.2-0.4,0.3-0.6,0.3
			c-0.2,0-0.5-0.1-0.6-0.2s-0.2-0.4-0.3-0.6c-0.2,0.3-0.6,0.5-1,0.7c-0.4,0.2-0.8,0.3-1.3,0.3c-0.7,0-1.3-0.2-1.8-0.5
			c-0.5-0.3-1-0.8-1.3-1.4c-0.3-0.6-0.5-1.3-0.5-2c0-0.8,0.2-1.4,0.5-2.1c0.3-0.6,0.7-1.1,1.3-1.4c0.5-0.3,1.1-0.5,1.8-0.5
			c0.5,0,0.9,0.1,1.3,0.3c0.4,0.2,0.7,0.4,1,0.6v0c0-0.2,0.1-0.5,0.2-0.6c0.2-0.2,0.4-0.3,0.6-0.3C60.7,25.1,60.9,25.2,61.1,25.3z
			 M59.1,30.8c0.4-0.5,0.6-1,0.6-1.7s-0.2-1.3-0.6-1.7c-0.4-0.5-0.9-0.7-1.5-0.7c-0.6,0-1.1,0.2-1.5,0.7c-0.4,0.5-0.6,1-0.6,1.7
			s0.2,1.3,0.6,1.7c0.4,0.5,0.9,0.7,1.5,0.7C58.2,31.5,58.7,31.3,59.1,30.8z"/>
		<path class="st3" d="M64.8,32.7c-0.2,0.2-0.4,0.3-0.6,0.3c-0.2,0-0.4-0.1-0.6-0.3c-0.2-0.2-0.2-0.4-0.2-0.6v-8.9
			c0-0.2,0.1-0.5,0.3-0.6c0.2-0.2,0.4-0.3,0.6-0.3c0.2,0,0.4,0.1,0.6,0.3c0.2,0.2,0.2,0.4,0.2,0.6V32C65.1,32.3,65,32.5,64.8,32.7z"
			/>
		<path class="st3" d="M68.7,32.7c-0.2,0.2-0.4,0.3-0.6,0.3c-0.2,0-0.4-0.1-0.6-0.3c-0.2-0.2-0.2-0.4-0.2-0.6v-8.9
			c0-0.2,0.1-0.5,0.3-0.6c0.2-0.2,0.4-0.3,0.6-0.3c0.2,0,0.4,0.1,0.6,0.3c0.2,0.2,0.2,0.4,0.2,0.6V32C68.9,32.3,68.8,32.5,68.7,32.7
			z"/>
		<path class="st3" d="M77.4,29.5c-0.2,0.1-0.4,0.2-0.6,0.2h-4.7c0.1,0.6,0.4,1,0.8,1.3c0.4,0.3,0.9,0.5,1.4,0.5
			c0.4,0,0.7,0,0.9-0.1c0.2-0.1,0.4-0.1,0.5-0.2c0.1-0.1,0.2-0.1,0.3-0.2c0.2-0.1,0.3-0.1,0.5-0.1c0.2,0,0.4,0.1,0.5,0.2
			c0.1,0.1,0.2,0.3,0.2,0.5c0,0.3-0.1,0.5-0.4,0.7c-0.3,0.2-0.6,0.4-1.1,0.6c-0.4,0.2-0.9,0.2-1.4,0.2c-0.8,0-1.5-0.2-2.1-0.5
			s-1.1-0.8-1.4-1.4c-0.3-0.6-0.5-1.2-0.5-2c0-0.8,0.2-1.5,0.5-2.2c0.3-0.6,0.8-1.1,1.4-1.4c0.6-0.3,1.2-0.5,1.8-0.5
			c0.6,0,1.2,0.2,1.8,0.5c0.6,0.3,1,0.8,1.3,1.4c0.3,0.6,0.5,1.2,0.5,1.9C77.7,29.1,77.6,29.3,77.4,29.5z M72.1,28.2h3.8v-0.1
			c0-0.4-0.2-0.7-0.6-1c-0.4-0.3-0.8-0.4-1.2-0.4C72.9,26.7,72.3,27.2,72.1,28.2z"/>
		<path class="st3" d="M83.2,31.5c0.1,0.1,0.2,0.3,0.2,0.5c0,0.3-0.1,0.5-0.4,0.7c-0.3,0.2-0.6,0.3-1,0.3c-0.6,0-1.1-0.1-1.5-0.4
			c-0.4-0.3-0.6-0.8-0.6-1.6v-4h-0.7c-0.2,0-0.4-0.1-0.6-0.2c-0.2-0.2-0.2-0.3-0.2-0.6c0-0.2,0.1-0.4,0.2-0.6s0.3-0.2,0.6-0.2h0.7
			v-0.9c0-0.2,0.1-0.5,0.3-0.6c0.2-0.2,0.4-0.3,0.6-0.3c0.2,0,0.4,0.1,0.6,0.3c0.2,0.2,0.2,0.4,0.2,0.6v0.9h1c0.2,0,0.4,0.1,0.6,0.2
			c0.2,0.2,0.2,0.3,0.2,0.6c0,0.2-0.1,0.4-0.2,0.6C83,26.9,82.8,27,82.6,27h-1v3.9c0,0.2,0.1,0.3,0.2,0.4c0.1,0.1,0.2,0.1,0.4,0.1
			c0.1,0,0.2,0,0.3-0.1c0.1,0,0.2-0.1,0.3-0.1C82.9,31.3,83.1,31.4,83.2,31.5z"/>
	</g>
</g>
</svg>
